<svg xmlns="http://www.w3.org/2000/svg" width="21" height="30" viewBox="0 0 21 30">
<defs>
  </defs>
  <path d="M972.426,3302a0.48,0.48,0,0,1-.153.68,0.466,0.466,0,0,1-.275.08,0.525,0.525,0,0,1-.43-0.22l-0.078-.12a0.494,0.494,0,0,1,.154-0.69,0.518,0.518,0,0,1,.705.15Zm-1.351-1.59a0.51,0.51,0,0,0,.43.23,0.551,0.551,0,0,0,.275-0.08,0.493,0.493,0,0,0,.153-0.69l-0.077-.12a0.529,0.529,0,0,0-.706-0.15,0.493,0.493,0,0,0-.152.69Zm0.647,3.25a0.518,0.518,0,0,0-.7-0.15,0.493,0.493,0,0,0-.153.69l0.077,0.12a0.51,0.51,0,0,0,.43.23,0.551,0.551,0,0,0,.275-0.08,0.493,0.493,0,0,0,.153-0.69Zm-1.922-.18a0.518,0.518,0,0,0-.7-0.15,0.494,0.494,0,0,0-.153.69l0.078,0.12a0.524,0.524,0,0,0,.429.22,0.469,0.469,0,0,0,.276-0.08,0.48,0.48,0,0,0,.153-0.68Zm0.475-2.02a0.528,0.528,0,0,0-.7-0.15,0.494,0.494,0,0,0-.154.69l0.078,0.12a0.509,0.509,0,0,0,.43.23,0.553,0.553,0,0,0,.275-0.08,0.493,0.493,0,0,0,.153-0.69Zm-2.251.7a0.518,0.518,0,0,0-.705-0.15,0.494,0.494,0,0,0-.153.69l0.077,0.12a0.526,0.526,0,0,0,.43.22,0.539,0.539,0,0,0,.275-0.07,0.494,0.494,0,0,0,.154-0.69Zm8.986,1.15a0.5,0.5,0,1,0,0-.99h-0.146a0.5,0.5,0,1,0,0,.99h0.146Zm1.881-11.78h0.052a0.5,0.5,0,0,0,.457-0.54l-0.739-7.21a0.51,0.51,0,0,0-1.015.1l0.738,7.2A0.5,0.5,0,0,0,978.891,3291.53Zm1.691,11.78h0.146a0.5,0.5,0,1,0,0-.99h-0.146A0.5,0.5,0,1,0,980.582,3303.31Zm0-2.96h0.146a0.509,0.509,0,0,0,.51-0.5,0.5,0.5,0,0,0-.51-0.5h-0.146a0.5,0.5,0,0,0-.51.5A0.509,0.509,0,0,0,980.582,3300.35Zm3.409,2.62v1.32a1.679,1.679,0,0,1-1.7,1.66H975.98a0.5,0.5,0,1,1,0-.99h6.312a0.675,0.675,0,0,0,.679-0.67v-1.34a0.418,0.418,0,0,1,0-.05,1.053,1.053,0,0,0,0-.21,0.418,0.418,0,0,1,0-.05V3292.2a0.675,0.675,0,0,0-.679-0.67,0.5,0.5,0,0,1-.507-0.45l-0.793-7.73a1.553,1.553,0,0,0-1.473-1.49H971.6a1.554,1.554,0,0,0-1.473,1.49l-0.792,7.73a0.5,0.5,0,0,1-.508.45,0.674,0.674,0,0,0-.678.67,0.511,0.511,0,0,1-1.021,0,1.672,1.672,0,0,1,1.231-1.6l0.753-7.35a2.573,2.573,0,0,1,1.978-2.33v-3.42a0.5,0.5,0,0,1,.51-0.5h7.923a0.5,0.5,0,0,1,.51.5v3.42a2.574,2.574,0,0,1,1.979,2.33l0.753,7.35a1.672,1.672,0,0,1,1.23,1.6v10.42A1.859,1.859,0,0,1,983.991,3302.97ZM979.009,3278h-6.9v2.87h6.9V3278Zm-6.668,13.53a0.5,0.5,0,0,0,.507-0.45l0.739-7.2a0.511,0.511,0,0,0-1.016-.1l-0.738,7.21a0.5,0.5,0,0,0,.457.54h0.051Zm3.727,0.48v-8.18a0.511,0.511,0,0,0-1.021,0v8.18A0.511,0.511,0,0,0,976.068,3292.01Zm-2.269,5.12a8.776,8.776,0,0,1,1.165,4.67,7.476,7.476,0,0,1-1.747,4.79,0.417,0.417,0,0,1-.242.15,6.488,6.488,0,0,1-1.879.26,8.623,8.623,0,0,1-3.311-.69,9.117,9.117,0,0,1-3.873-2.98,3.651,3.651,0,0,1-.577-3.88,0.467,0.467,0,0,1-.057-0.23,2.524,2.524,0,0,1,.7-1.68,2.045,2.045,0,0,1-.635-1.58,0.5,0.5,0,0,1,.229-0.4,2.933,2.933,0,0,1,1.912-.45,2.8,2.8,0,0,1,1.214-1.51,0.515,0.515,0,0,1,.467-0.04,2.121,2.121,0,0,1,1.207,1.22,2.7,2.7,0,0,1,1.86.08,0.423,0.423,0,0,1,.191.15A3.819,3.819,0,0,1,973.8,3297.13Zm-8.711.78a1.751,1.751,0,0,0-.738.96,1.809,1.809,0,0,0,1.2-.25,0.521,0.521,0,0,1,.269-0.08,0.452,0.452,0,0,1,.248.07,0.481,0.481,0,0,1,.262.43,1.052,1.052,0,0,0,.468.89,1.6,1.6,0,0,0,.612-1.14,0.473,0.473,0,0,1,.234-0.39,0.521,0.521,0,0,1,.469-0.05,1.678,1.678,0,0,0,1.313-.07,1.055,1.055,0,0,0-.635-0.78,0.515,0.515,0,0,1-.3-0.42,0.489,0.489,0,0,1,.226-0.45,0.651,0.651,0,1,0-.466-0.71,0.5,0.5,0,0,1-.516.01,0.482,0.482,0,0,1-.263-0.43,1.05,1.05,0,0,0-.468-0.89,1.594,1.594,0,0,0-.612,1.13,0.477,0.477,0,0,1-.234.4,0.521,0.521,0,0,1-.469.05,1.678,1.678,0,0,0-1.313.07,1.056,1.056,0,0,0,.636.78,0.516,0.516,0,0,1,.3.42A0.487,0.487,0,0,1,965.088,3297.91Zm7.834-.27a2.934,2.934,0,0,0-2.5-1.64,2.671,2.671,0,0,1-.588,1,2.052,2.052,0,0,1,.635,1.58,0.5,0.5,0,0,1-.229.4,2.933,2.933,0,0,1-1.912.45,2.8,2.8,0,0,1-1.215,1.51,0.545,0.545,0,0,1-.466.04,2.121,2.121,0,0,1-1.207-1.22,2.936,2.936,0,0,1-1.173.11,2.8,2.8,0,0,0,.485,2.9c1.478,2.08,4.853,3.81,7.791,3.06C974.463,3303.53,974.247,3299.81,972.922,3297.64Z" transform="translate(-963 -3277)"></path>
</svg>