<svg xmlns="http://www.w3.org/2000/svg" width="28.888" height="29.992" viewBox="0 0 157 163">
<defs>
  </defs>
  <path d="M1113.32,3342.48a3.016,3.016,0,0,1-3.06,2.97h-0.92a2.976,2.976,0,1,1,0-5.95h0.92A3.018,3.018,0,0,1,1113.32,3342.48Zm-3.06-26.24h-0.92a2.976,2.976,0,1,0,0,5.95h0.92A2.976,2.976,0,1,0,1110.26,3316.24Zm-20.48,17.58h0.92a2.976,2.976,0,1,0,0-5.95h-0.92A2.976,2.976,0,1,0,1089.78,3333.82Zm5.74-11.63h0.92a2.976,2.976,0,1,0,0-5.95h-0.92A2.976,2.976,0,1,0,1095.52,3322.19Zm-4.82-17.58h-0.92a2.976,2.976,0,1,0,0,5.95h0.92A2.976,2.976,0,1,0,1090.7,3304.61Zm28.95,54.23a3.016,3.016,0,0,1-3.06,2.97h-49.53a3.016,3.016,0,0,1-3.06-2.97V3284.7c0-.12.01-0.23,0.02-0.35l8.65-70.73a3.023,3.023,0,0,1,3.03-2.62h89.11a3.024,3.024,0,0,1,3.04,2.62l2.38,19.31a2.988,2.988,0,0,1-2.68,3.3,3.025,3.025,0,0,1-3.39-2.59l-2.06-16.69h-29.95v30.79a2.958,2.958,0,0,1-1.44,2.52,3.147,3.147,0,0,1-2.95.16l-9.74-4.57-9.73,4.57a3.169,3.169,0,0,1-2.96-.16,2.958,2.958,0,0,1-1.43-2.52v-30.79h-25.48l-8.3,67.92v71h46.47A3.016,3.016,0,0,1,1119.65,3358.84Zm-9.63-115.83,6.68-3.14a3.147,3.147,0,0,1,2.65,0l6.68,3.14v-26.06h-16.01v26.06Zm66.91,26.39a2.935,2.935,0,0,0,.97,4.1,3.132,3.132,0,0,0,4.22-.94c4.26-6.63.5-12.16-2.25-16.19-2.85-4.18-4.24-6.52-2.16-9.75a2.937,2.937,0,0,0-.97-4.1,3.12,3.12,0,0,0-4.22.95c-4.27,6.63-.5,12.15,2.25,16.19C1177.62,3263.84,1179.01,3266.17,1176.93,3269.4Zm-11.78,4.1a3.132,3.132,0,0,0,4.22-.94c4.27-6.63.5-12.16-2.25-16.19-2.85-4.18-4.24-6.52-2.16-9.75a2.937,2.937,0,0,0-.97-4.1,3.12,3.12,0,0,0-4.22.95c-4.27,6.63-.5,12.15,2.25,16.19,2.85,4.18,4.24,6.51,2.16,9.74A2.935,2.935,0,0,0,1165.15,3273.5Zm21.81,20.79h-0.92a2.971,2.971,0,1,0,0,5.94h0.92A2.971,2.971,0,1,0,1186.96,3294.29Zm-15.56-3.48h-0.92a2.971,2.971,0,1,0,0,5.94h0.92A2.971,2.971,0,1,0,1171.4,3290.81Zm31.24,37.34a3.014,3.014,0,0,0-3.05,2.97c0,12.74-10.65,23.09-23.75,23.09a2.976,2.976,0,1,0,0,5.95c16.47,0,29.86-13.02,29.86-29.04A3.016,3.016,0,0,0,1202.64,3328.15Zm18.36-19.9v24.13c0,22.95-19.2,41.62-42.79,41.62h-14.53c-23.59,0-42.79-18.67-42.79-41.62v-24.13a3.016,3.016,0,0,1,3.06-2.97h3.92c5.25-14.95,22.91-25.58,43.07-25.58s37.83,10.63,43.08,25.58h3.92A3.016,3.016,0,0,1,1221,3308.25Zm-86.58-2.97h73.04c-5.21-11.57-19.84-19.63-36.52-19.63S1139.64,3293.71,1134.42,3305.28Zm80.46,5.94h-87.87v21.16c0,19.67,16.45,35.67,36.67,35.67h14.53c20.22,0,36.67-16,36.67-35.67v-21.16h0Zm-119.36,34.23h0.92a2.976,2.976,0,1,0,0-5.95h-0.92A2.976,2.976,0,1,0,1095.52,3345.45Zm60.33-51.16h-0.92a2.971,2.971,0,1,0,0,5.94h0.92A2.971,2.971,0,1,0,1155.85,3294.29Zm-53.67,39.53a2.976,2.976,0,1,0,0-5.95h-0.92a2.976,2.976,0,1,0,0,5.95h0.92Zm-19.56-17.58h-0.92a2.976,2.976,0,1,0,0,5.95h0.92A2.976,2.976,0,1,0,1082.62,3316.24Zm0,23.26h-0.92a2.976,2.976,0,1,0,0,5.95h0.92A2.976,2.976,0,1,0,1082.62,3339.5Z" transform="translate(-1064 -3211)"></path>
</svg>