<svg xmlns="http://www.w3.org/2000/svg" width="27.943" height="29.992" viewBox="0 0 191 205">
<defs>
  </defs>
  <path d="M894.859,3235.68a3.309,3.309,0,0,1-3.271,3.34h-0.981a3.341,3.341,0,0,1,0-6.68h0.981A3.3,3.3,0,0,1,894.859,3235.68Zm8.7,152.17a3.3,3.3,0,0,1-3.271,3.34h-12.4a19.844,19.844,0,0,1-18.409-12.77H847.421a3.341,3.341,0,0,1,0-6.68H868.1c-0.008-.25-0.013-0.5-0.013-0.76v-63.52h-0.851a3.3,3.3,0,0,1-3.271-3.33v-16.76a3.3,3.3,0,0,1,3.271-3.34H957.5a3.3,3.3,0,0,1,3.271,3.34v16.76a3.3,3.3,0,0,1-3.271,3.33h-0.851v21.58a3.272,3.272,0,1,1-6.542,0v-21.58h-75.48v63.52a20.821,20.821,0,0,0,.543,3.84,13.316,13.316,0,0,0,12.713,9.69h12.4A3.308,3.308,0,0,1,903.557,3387.85Zm50.676-87.06v-10.08H870.508v10.08h83.725Zm-62.645-53.07h-0.981a3.341,3.341,0,0,0,0,6.68h0.981A3.341,3.341,0,0,0,891.588,3247.72Zm-91.244,64.83a0.314,0.314,0,0,0,.1.01,3.31,3.31,0,0,0,3.268-3.25l2.508-89.04h83.827a3.341,3.341,0,0,0,0-6.68H806.405l0.406-14.4a1.475,1.475,0,0,1,1.386-1.52h92.7a1.477,1.477,0,0,1,1.386,1.52l1.988,70.55a3.271,3.271,0,1,0,6.538-.19l-1.987-70.56A8.038,8.038,0,0,0,900.9,3191H808.2a8.034,8.034,0,0,0-7.925,7.99l-3.1,110.13A3.3,3.3,0,0,0,800.344,3312.55Zm37,32.33v23.89c0,15.01-11.964,27.22-26.672,27.22S784,3383.78,784,3368.77v-23.89c0-15.02,11.965-27.23,26.671-27.23h0C825.379,3317.65,837.344,3329.86,837.344,3344.88Zm-35.663,42.27a29.462,29.462,0,0,1,6.991-32.68c6.65-7.71,4.536-17.21-1.4-29.85a20.466,20.466,0,0,0-16.734,20.26v23.89A20.611,20.611,0,0,0,801.681,3387.15Zm29.122-42.27a20.486,20.486,0,0,0-16.263-20.17c5.043,11.42,8.138,23.81-1.107,34.34a3.1,3.1,0,0,1-.253.26,22.632,22.632,0,0,0-2.765,30,2.2,2.2,0,0,0,.257.01,20.367,20.367,0,0,0,20.131-20.55v-23.89h0Zm131.278,37.94a43.354,43.354,0,0,1-39.673,12.33,2.135,2.135,0,0,1-.248-0.05,3.374,3.374,0,0,1-1.034-.5,45.536,45.536,0,0,1,.064-74.71,3.239,3.239,0,0,1,3.648,0,44.943,44.943,0,0,1,17.585,24.15,43.646,43.646,0,0,1,29.158-4.38,3.3,3.3,0,0,1,2.58,2.63A45.577,45.577,0,0,1,962.081,3382.82Zm-24.257-25.55a38.56,38.56,0,0,0-14.811-30.5,38.843,38.843,0,0,0-3.27,58.14v-24.07a3.272,3.272,0,1,1,6.542,0v24.07A38.644,38.644,0,0,0,937.824,3357.27Zm30.285-11.43a37.16,37.16,0,0,0-24.194,5,46,46,0,0,1,.451,6.43,45.4,45.4,0,0,1-13.137,32.05,37.131,37.131,0,0,0,26.226-11.22A38.79,38.79,0,0,0,968.109,3345.84Zm-94.154-113.5a3.341,3.341,0,0,0,0,6.68h0.982a3.341,3.341,0,0,0,0-6.68h-0.982Z" transform="translate(-784 -3191)"></path>
</svg>