<svg xmlns="http://www.w3.org/2000/svg" width="24.928" height="29.99" viewBox="0 0 118.03 142">
<defs>
  </defs>
  <path d="M1068.26,3273.1a2.206,2.206,0,0,1-3.14-.02,24.974,24.974,0,0,0-17.92-7.53,25.471,25.471,0,0,0,0,50.94,24.974,24.974,0,0,0,17.92-7.53,2.2,2.2,0,0,1,3.14-.01,2.236,2.236,0,0,1,.01,3.15,29.362,29.362,0,0,1-21.07,8.86,29.941,29.941,0,0,1,0-59.88,29.393,29.393,0,0,1,21.07,8.85A2.261,2.261,0,0,1,1068.26,3273.1Zm46.82,79.02a10.755,10.755,0,0,1-19.35,6.59,10.755,10.755,0,0,1-19.35-6.59V3308.7a2.238,2.238,0,0,1,1.71-2.18,6.414,6.414,0,0,0,.04-12.46,2.23,2.23,0,0,1-.79-0.34v-0.01h0a2,2,0,0,1-.38-0.33,2.269,2.269,0,0,1-.58-1.47h0v-0.01h0v-0.01h0v-0.01h0v-14.87a13.534,13.534,0,0,1,8.57-12.61v-10.79a2.23,2.23,0,0,1,2.21-2.24h17.13a2.232,2.232,0,0,1,2.22,2.24v10.79a13.525,13.525,0,0,1,8.56,12.61v14.86a2.229,2.229,0,0,1-1.7,2.18,6.414,6.414,0,0,0,0,12.47,2.229,2.229,0,0,1,1.7,2.18v5.39a2.215,2.215,0,1,1-4.43,0v-3.78a10.907,10.907,0,0,1,0-20.05v-13.25a9.016,9.016,0,0,0-8.96-9.05h-11.9a9.016,9.016,0,0,0-8.96,9.05v12.63h17.14a2.235,2.235,0,0,1,0,4.47h-12.47a10.863,10.863,0,0,1,1.94,6.18,10.985,10.985,0,0,1-6.61,10.02v11.04h22.22a2.235,2.235,0,0,1,0,4.47h-22.22v26.3a6.341,6.341,0,0,0,12.46,1.73,2.212,2.212,0,0,1,2.13-1.63h0.64a2.212,2.212,0,0,1,2.13,1.63,6.341,6.341,0,0,0,12.46-1.73A2.22,2.22,0,1,1,1115.08,3352.12Zm-25.7-88.62c0.13-.01.27-0.01,0.4-0.01h11.9c0.13,0,.27,0,0.4.01v-7.65h-4.13v1.6a2.22,2.22,0,1,1-4.44,0v-1.6h-4.13v7.65h0Zm-18.76,83.99a2.226,2.226,0,0,1-2.22,2.24h-61.18a2.226,2.226,0,0,1-2.22-2.24V3234.55a2.232,2.232,0,0,1,2.22-2.24h13.77v-9.08a2.23,2.23,0,0,1,2.22-2.23h16a2.221,2.221,0,0,1,2.21,2.23v9.08h45.77a2.239,2.239,0,0,1,2.22,2.24v8.56a2.22,2.22,0,1,1-4.44,0v-6.33h-75.54v108.48h58.97A2.224,2.224,0,0,1,1070.62,3347.49Zm-45.19-115.18h11.56v-6.84h-3.57v1.35a2.215,2.215,0,1,1-4.43,0v-1.35h-3.56v6.84Zm22.08,56.47h-0.61a2.235,2.235,0,0,0,0,4.47h0.61A2.235,2.235,0,0,0,1047.51,3288.78Zm55.8-1.5a2.224,2.224,0,0,0,2.22-2.23v-6.01a6.762,6.762,0,0,0-6.73-6.78,2.235,2.235,0,0,0,0,4.47,2.309,2.309,0,0,1,2.3,2.31v6.01A2.221,2.221,0,0,0,1103.31,3287.28Zm18.64,52.59a10.168,10.168,0,0,1-18,.34c-3.37-6.06.63-10.75,4.16-14.89,1.02-1.19,2.07-2.42,2.94-3.66a2.213,2.213,0,0,1,3.62,0c0.87,1.24,1.92,2.47,2.93,3.66C1121.05,3329.36,1124.96,3333.94,1121.95,3339.87Zm-7.71-11.63c-0.46-.54-0.92-1.09-1.38-1.64-0.46.56-.93,1.1-1.39,1.64-3.52,4.13-5.42,6.61-3.66,9.79a5.764,5.764,0,0,0,10.2-.2C1119.58,3334.73,1117.7,3332.29,1114.24,3328.24Zm-49.3-47.39a20.7,20.7,0,0,1,0,20.34l-0.06.12a1.48,1.48,0,0,1-.08.13,20.305,20.305,0,0,1-35.19,0,0.567,0.567,0,0,1-.08-0.13c-0.02-.04-0.05-0.08-0.07-0.12a20.7,20.7,0,0,1,0-20.34c0.02-.04.05-0.08,0.07-0.12a0.567,0.567,0,0,1,.08-0.13,20.305,20.305,0,0,1,35.19,0,1.48,1.48,0,0,1,.08.13Zm-1.76,10.17a15.929,15.929,0,0,0-1.17-6.04l-7.4,4.3a2.191,2.191,0,0,1-3.02-.81,2.246,2.246,0,0,1,.81-3.06l7.39-4.3a15.92,15.92,0,0,0-10.37-6.05v8.62a2.215,2.215,0,1,1-4.43,0v-8.62a15.966,15.966,0,0,0-10.38,6.05l7.4,4.3a2.255,2.255,0,0,1,.81,3.06,2.2,2.2,0,0,1-3.03.81l-7.4-4.3a16.3,16.3,0,0,0,0,12.08l7.4-4.3a2.2,2.2,0,0,1,3.03.81,2.255,2.255,0,0,1-.81,3.06l-7.4,4.3a15.966,15.966,0,0,0,10.38,6.05v-8.62a2.215,2.215,0,1,1,4.43,0v8.62a15.92,15.92,0,0,0,10.37-6.05l-7.39-4.3a2.246,2.246,0,0,1-.81-3.06,2.191,2.191,0,0,1,3.02-.81l7.4,4.3A15.929,15.929,0,0,0,1063.18,3291.02Z" transform="translate(-1005 -3221)"></path>
</svg>