<svg xmlns="http://www.w3.org/2000/svg" width="26" height="30" viewBox="0 0 26 30">
<defs>
  </defs>
  <path d="M772.715,3281.24a0.48,0.48,0,0,0-.451.48l-0.171,7.95a0.516,0.516,0,0,1-.526.49h-0.011a0.519,0.519,0,0,1-.517-0.51l0.171-7.95a1.513,1.513,0,0,1,1.5-1.47h0.624a0.512,0.512,0,0,1,.527.5,0.52,0.52,0,0,1-.527.51h-0.624Zm13.911-.18a0.2,0.2,0,0,1,.2.19,0.527,0.527,0,0,0,1.054,0,1.221,1.221,0,0,0-1.252-1.19A0.5,0.5,0,1,0,786.626,3281.06Zm-11.235,18.45a0.52,0.52,0,0,0,.527-0.51v-6.24a1.684,1.684,0,0,0-3.365,0V3299a0.527,0.527,0,0,0,1.054,0v-6.24a0.629,0.629,0,0,1,1.257,0V3299A0.52,0.52,0,0,0,775.391,3299.51Zm5.022-2.87a0.528,0.528,0,0,0-1.054.04l0.056,1.29a1.627,1.627,0,0,1-.5,1.23,2.04,2.04,0,0,1-1.414.57h-0.62a0.518,0.518,0,0,0-.527.49,1.078,1.078,0,0,1-.6,1.11h-3.025a1.078,1.078,0,0,1-.6-1.11,0.517,0.517,0,0,0-.526-0.49h-0.621a2.04,2.04,0,0,1-1.414-.57,1.627,1.627,0,0,1-.5-1.23l0.743-17.12a1.917,1.917,0,0,1,1.915-1.84h5.043a1.917,1.917,0,0,1,1.915,1.84l0.036,0.82a0.528,0.528,0,0,0,1.053-.04l-0.036-.82a2.946,2.946,0,0,0-2.968-2.81h-5.043a2.953,2.953,0,0,0-2.968,2.81L768,3297.93a2.593,2.593,0,0,0,.793,1.96,3.079,3.079,0,0,0,2.175.89h0.15a1.8,1.8,0,0,0,1.6,1.6h3.025a1.794,1.794,0,0,0,1.6-1.6h0.15a3.079,3.079,0,0,0,2.175-.89,2.6,2.6,0,0,0,.794-1.96Zm-5.022,6.6a0.52,0.52,0,0,0-.527.51v2.64a0.616,0.616,0,0,1-.628.6,0.61,0.61,0,0,1-.629-0.6v-2.64a0.527,0.527,0,0,0-1.054,0v2.64a1.684,1.684,0,0,0,3.365,0v-2.64A0.52,0.52,0,0,0,775.391,3303.24Zm11.027-3.48-0.61.59a0.487,0.487,0,0,0,0,.71,0.567,0.567,0,0,0,.746,0l0.609-.59a0.485,0.485,0,0,0,0-.71A0.558,0.558,0,0,0,786.418,3299.76Zm1.718-3.82-0.609.58a0.485,0.485,0,0,0,0,.71,0.538,0.538,0,0,0,.745,0l0.61-.58a0.485,0.485,0,0,0,0-.71A0.539,0.539,0,0,0,788.136,3295.94Zm-3.223-.82a0.487,0.487,0,0,0,0-.71l-0.609-.58a0.539,0.539,0,0,0-.746,0,0.485,0.485,0,0,0,0,.71l0.609,0.58A0.539,0.539,0,0,0,784.913,3295.12Zm9.087-7.08a6.824,6.824,0,0,1-.6,2.8,0.3,0.3,0,0,1-.044.08l-6.377,16.75a0.537,0.537,0,0,1-.991,0l-6.376-16.75a0.335,0.335,0,0,1-.045-0.08,6.839,6.839,0,0,1-.6-2.8,7.163,7.163,0,0,1,3.979-6.33c-0.01-.11-0.016-0.21-0.016-0.32a3.554,3.554,0,0,1,7.1,0,3.117,3.117,0,0,1-.016.32A7.164,7.164,0,0,1,794,3288.04Zm-10.011-6.65a2.264,2.264,0,0,0,.054.49,0.146,0.146,0,0,1,0,.02,2.524,2.524,0,0,0,4.876,0,0.142,0.142,0,0,1,0-.02,2.264,2.264,0,0,0,.054-0.49A2.5,2.5,0,0,0,783.989,3281.39Zm8.161,9.76h-2.028v2.09a1.646,1.646,0,0,1-1.683,1.6,1.67,1.67,0,0,1-1.639-1.24,1.744,1.744,0,0,1-.324.03,1.648,1.648,0,0,1-1.683-1.61v-0.87h-3.971l5.664,14.87Zm0.8-3.11a6.15,6.15,0,0,0-3.2-5.32,3.624,3.624,0,0,1-6.529,0,6.151,6.151,0,0,0-3.2,5.32,5.855,5.855,0,0,0,.387,2.1h4.907a0.518,0.518,0,0,1,.527.5v1.38a0.616,0.616,0,0,0,.629.6,0.644,0.644,0,0,0,.439-0.17,0.556,0.556,0,0,1,.369-0.14,0.485,0.485,0,0,1,.2.04,0.5,0.5,0,0,1,.323.46v0.43a0.629,0.629,0,0,0,1.257,0v-2.6a0.518,0.518,0,0,1,.527-0.5h2.964A5.855,5.855,0,0,0,792.946,3288.04Zm-7.038,9.57-0.61-.58a0.538,0.538,0,0,0-.745,0,0.485,0.485,0,0,0,0,.71l0.609,0.58a0.539,0.539,0,0,0,.746,0A0.485,0.485,0,0,0,785.908,3297.61Z" transform="translate(-768 -3278)"></path>
</svg>